<mxfile host="app.diagrams.net" modified="2022-09-12T18:33:05.536Z" agent="5.0 (Windows NT 10.0; Win64; x64) AppleWebKit/537.36 (KHTML, like Gecko) Chrome/105.0.0.0 Safari/537.36" etag="JsMYinxG8RCMo2gUxMIB" version="20.3.0" type="github">
  <diagram id="3ghRAc74tLaqJtWdqEJi" name="Page-1">
    <mxGraphModel dx="811" dy="517" grid="1" gridSize="10" guides="1" tooltips="1" connect="1" arrows="1" fold="1" page="1" pageScale="1" pageWidth="2336" pageHeight="1654" math="0" shadow="0">
      <root>
        <mxCell id="0" />
        <mxCell id="1" parent="0" />
        <mxCell id="lM4-D-P1etuxxtSWjzWz-32" style="edgeStyle=orthogonalEdgeStyle;rounded=0;orthogonalLoop=1;jettySize=auto;html=1;exitX=0;exitY=0.5;exitDx=0;exitDy=0;entryX=0;entryY=0.5;entryDx=0;entryDy=0;dashed=1;fontSize=10;startArrow=none;startFill=0;endArrow=none;endFill=0;" parent="1" source="lM4-D-P1etuxxtSWjzWz-2" target="lM4-D-P1etuxxtSWjzWz-10" edge="1">
          <mxGeometry relative="1" as="geometry">
            <Array as="points">
              <mxPoint x="150" y="273" />
              <mxPoint x="150" y="450" />
            </Array>
          </mxGeometry>
        </mxCell>
        <mxCell id="lM4-D-P1etuxxtSWjzWz-2" value="&lt;font style=&quot;font-size: 10px&quot;&gt;P&amp;amp;A Committee&lt;/font&gt;" style="rounded=1;whiteSpace=wrap;html=1;shadow=0;labelBackgroundColor=none;strokeWidth=1;fontFamily=Verdana;fontSize=8;align=center;" parent="1" vertex="1">
          <mxGeometry x="168" y="243" width="120" height="60" as="geometry" />
        </mxCell>
        <mxCell id="lM4-D-P1etuxxtSWjzWz-31" style="edgeStyle=orthogonalEdgeStyle;rounded=0;orthogonalLoop=1;jettySize=auto;html=1;exitX=0;exitY=0.5;exitDx=0;exitDy=0;dashed=1;fontSize=10;startArrow=none;startFill=0;endArrow=none;endFill=0;entryX=0;entryY=0.5;entryDx=0;entryDy=0;" parent="1" source="lM4-D-P1etuxxtSWjzWz-3" target="lM4-D-P1etuxxtSWjzWz-10" edge="1">
          <mxGeometry relative="1" as="geometry">
            <mxPoint x="230" y="450" as="targetPoint" />
            <Array as="points">
              <mxPoint x="150" y="350" />
              <mxPoint x="150" y="450" />
            </Array>
          </mxGeometry>
        </mxCell>
        <mxCell id="lM4-D-P1etuxxtSWjzWz-3" value="&lt;font style=&quot;font-size: 10px&quot;&gt;Steering Committee&lt;/font&gt;" style="rounded=1;whiteSpace=wrap;html=1;shadow=0;labelBackgroundColor=none;strokeWidth=1;fontFamily=Verdana;fontSize=8;align=center;" parent="1" vertex="1">
          <mxGeometry x="168" y="320" width="120" height="60" as="geometry" />
        </mxCell>
        <mxCell id="lM4-D-P1etuxxtSWjzWz-18" style="edgeStyle=orthogonalEdgeStyle;rounded=0;orthogonalLoop=1;jettySize=auto;html=1;exitX=1;exitY=0.5;exitDx=0;exitDy=0;entryX=0;entryY=0.5;entryDx=0;entryDy=0;" parent="1" source="lM4-D-P1etuxxtSWjzWz-4" target="lM4-D-P1etuxxtSWjzWz-5" edge="1">
          <mxGeometry relative="1" as="geometry" />
        </mxCell>
        <mxCell id="lM4-D-P1etuxxtSWjzWz-30" style="edgeStyle=orthogonalEdgeStyle;rounded=0;orthogonalLoop=1;jettySize=auto;html=1;exitX=0;exitY=0.5;exitDx=0;exitDy=0;fontSize=10;startArrow=none;startFill=0;endArrow=block;endFill=0;dashed=1;entryX=0;entryY=0.5;entryDx=0;entryDy=0;" parent="1" source="lM4-D-P1etuxxtSWjzWz-4" target="lM4-D-P1etuxxtSWjzWz-10" edge="1">
          <mxGeometry relative="1" as="geometry">
            <mxPoint x="200" y="450" as="targetPoint" />
            <Array as="points">
              <mxPoint x="150" y="153" />
              <mxPoint x="150" y="450" />
            </Array>
          </mxGeometry>
        </mxCell>
        <mxCell id="lM4-D-P1etuxxtSWjzWz-4" value="&lt;font style=&quot;font-size: 10px&quot;&gt;OCI Contributor&lt;/font&gt;" style="rounded=1;whiteSpace=wrap;html=1;shadow=0;labelBackgroundColor=none;strokeWidth=1;fontFamily=Verdana;fontSize=8;align=center;" parent="1" vertex="1">
          <mxGeometry x="168" y="123" width="120" height="60" as="geometry" />
        </mxCell>
        <mxCell id="lM4-D-P1etuxxtSWjzWz-19" style="edgeStyle=orthogonalEdgeStyle;rounded=0;orthogonalLoop=1;jettySize=auto;html=1;exitX=0.5;exitY=1;exitDx=0;exitDy=0;entryX=0.5;entryY=0;entryDx=0;entryDy=0;" parent="1" source="lM4-D-P1etuxxtSWjzWz-5" target="lM4-D-P1etuxxtSWjzWz-6" edge="1">
          <mxGeometry relative="1" as="geometry" />
        </mxCell>
        <mxCell id="lM4-D-P1etuxxtSWjzWz-5" value="Submission of Request for Appeal, incl. justification" style="shape=internalStorage;whiteSpace=wrap;html=1;backgroundOutline=1;rounded=1;shadow=0;fontSize=10;spacingLeft=14;spacingTop=4;dx=10;dy=10;" parent="1" vertex="1">
          <mxGeometry x="395" y="123" width="140" height="60" as="geometry" />
        </mxCell>
        <mxCell id="lM4-D-P1etuxxtSWjzWz-20" style="edgeStyle=orthogonalEdgeStyle;rounded=0;orthogonalLoop=1;jettySize=auto;html=1;exitX=0.5;exitY=1;exitDx=0;exitDy=0;entryX=0.5;entryY=0;entryDx=0;entryDy=0;" parent="1" source="lM4-D-P1etuxxtSWjzWz-6" target="lM4-D-P1etuxxtSWjzWz-11" edge="1">
          <mxGeometry relative="1" as="geometry" />
        </mxCell>
        <mxCell id="lM4-D-P1etuxxtSWjzWz-6" value="Appeal evaluation&lt;span style=&quot;color: rgba(0, 0, 0, 0); font-family: monospace; font-size: 0px; text-align: start;&quot;&gt;%3CmxGraphModel%3E%3Croot%3E%3CmxCell%20id%3D%220%22%2F%3E%3CmxCell%20id%3D%221%22%20parent%3D%220%22%2F%3E%3CmxCell%20id%3D%222%22%20value%3D%22Industry%20Alignment%20needed%3F%22%20style%3D%22rhombus%3BwhiteSpace%3Dwrap%3Bhtml%3D1%3Brounded%3D1%3Bshadow%3D0%3BfontSize%3D10%3B%22%20vertex%3D%221%22%20parent%3D%221%22%3E%3CmxGeometry%20x%3D%22230%22%20y%3D%22620%22%20width%3D%2280%22%20height%3D%2280%22%20as%3D%22geometry%22%2F%3E%3C%2FmxCell%3E%3CmxCell%20id%3D%223%22%20value%3D%22No%22%20style%3D%22edgeLabel%3Bresizable%3D0%3Bhtml%3D1%3Balign%3Dcenter%3BverticalAlign%3Dmiddle%3B%22%20connectable%3D%220%22%20vertex%3D%221%22%20parent%3D%221%22%3E%3CmxGeometry%20x%3D%22365%22%20y%3D%22660%22%20as%3D%22geometry%22%2F%3E%3C%2FmxCell%3E%3CmxCell%20id%3D%224%22%20value%3D%22Yes%22%20style%3D%22edgeLabel%3Bresizable%3D0%3Bhtml%3D1%3Balign%3Dcenter%3BverticalAlign%3Dmiddle%3Brounded%3D1%3Bshadow%3D0%3BfontSize%3D10%3BstrokeWidth%3D1%3B%22%20connectable%3D%220%22%20vertex%3D%221%22%20parent%3D%221%22%3E%3CmxGeometry%20x%3D%22200%22%20y%3D%22660%22%20as%3D%22geometry%22%2F%3E%3C%2FmxCell%3E%3C%2Froot%3E%3C%2FmxGraphModel%3E&lt;/span&gt;" style="shape=process;whiteSpace=wrap;html=1;backgroundOutline=1;rounded=1;shadow=0;fontSize=10;" parent="1" vertex="1">
          <mxGeometry x="405" y="243" width="120" height="60" as="geometry" />
        </mxCell>
        <mxCell id="lM4-D-P1etuxxtSWjzWz-26" style="edgeStyle=orthogonalEdgeStyle;rounded=0;orthogonalLoop=1;jettySize=auto;html=1;exitX=0.5;exitY=1;exitDx=0;exitDy=0;entryX=0;entryY=0.5;entryDx=0;entryDy=0;fontSize=10;" parent="1" source="lM4-D-P1etuxxtSWjzWz-10" target="lM4-D-P1etuxxtSWjzWz-12" edge="1">
          <mxGeometry relative="1" as="geometry">
            <mxPoint x="275.0000000000001" y="480" as="sourcePoint" />
          </mxGeometry>
        </mxCell>
        <mxCell id="lM4-D-P1etuxxtSWjzWz-10" value="Industry Alignment Session" style="shape=process;whiteSpace=wrap;html=1;backgroundOutline=1;rounded=1;shadow=0;fontSize=10;" parent="1" vertex="1">
          <mxGeometry x="233" y="420" width="120" height="60" as="geometry" />
        </mxCell>
        <mxCell id="lM4-D-P1etuxxtSWjzWz-11" value="Industry Alignment needed?" style="rhombus;whiteSpace=wrap;html=1;rounded=1;shadow=0;fontSize=10;" parent="1" vertex="1">
          <mxGeometry x="425" y="410" width="80" height="80" as="geometry" />
        </mxCell>
        <mxCell id="lM4-D-P1etuxxtSWjzWz-12" value="Appeal approved?" style="rhombus;whiteSpace=wrap;html=1;rounded=1;shadow=0;fontSize=10;" parent="1" vertex="1">
          <mxGeometry x="425" y="540" width="80" height="80" as="geometry" />
        </mxCell>
        <mxCell id="lM4-D-P1etuxxtSWjzWz-13" value="N" style="endArrow=classic;html=1;rounded=0;exitX=0.5;exitY=1;exitDx=0;exitDy=0;entryX=0.5;entryY=0;entryDx=0;entryDy=0;" parent="1" source="lM4-D-P1etuxxtSWjzWz-11" target="lM4-D-P1etuxxtSWjzWz-12" edge="1">
          <mxGeometry relative="1" as="geometry">
            <mxPoint x="335" y="630" as="sourcePoint" />
            <mxPoint x="435" y="630" as="targetPoint" />
          </mxGeometry>
        </mxCell>
        <mxCell id="lM4-D-P1etuxxtSWjzWz-14" value="No" style="edgeLabel;resizable=0;html=1;align=center;verticalAlign=middle;" parent="lM4-D-P1etuxxtSWjzWz-13" connectable="0" vertex="1">
          <mxGeometry relative="1" as="geometry" />
        </mxCell>
        <mxCell id="lM4-D-P1etuxxtSWjzWz-15" value="Yes" style="endArrow=classic;html=1;rounded=0;fontSize=10;exitX=0;exitY=0.5;exitDx=0;exitDy=0;entryX=1;entryY=0.5;entryDx=0;entryDy=0;" parent="1" source="lM4-D-P1etuxxtSWjzWz-11" target="lM4-D-P1etuxxtSWjzWz-10" edge="1">
          <mxGeometry relative="1" as="geometry">
            <mxPoint x="435" y="703" as="sourcePoint" />
            <mxPoint x="335" y="450" as="targetPoint" />
          </mxGeometry>
        </mxCell>
        <mxCell id="lM4-D-P1etuxxtSWjzWz-16" value="Yes" style="edgeLabel;resizable=0;html=1;align=center;verticalAlign=middle;rounded=1;shadow=0;fontSize=10;strokeWidth=1;" parent="lM4-D-P1etuxxtSWjzWz-15" connectable="0" vertex="1">
          <mxGeometry relative="1" as="geometry" />
        </mxCell>
        <mxCell id="lM4-D-P1etuxxtSWjzWz-17" value="Communication with Contributor" style="strokeWidth=1;html=1;shape=mxgraph.flowchart.terminator;whiteSpace=wrap;rounded=1;shadow=0;fontSize=10;" parent="1" vertex="1">
          <mxGeometry x="415" y="670" width="100" height="60" as="geometry" />
        </mxCell>
        <mxCell id="lM4-D-P1etuxxtSWjzWz-21" value="" style="endArrow=classic;html=1;rounded=0;exitX=0.5;exitY=1;exitDx=0;exitDy=0;entryX=0.5;entryY=0;entryDx=0;entryDy=0;entryPerimeter=0;" parent="1" source="lM4-D-P1etuxxtSWjzWz-12" target="lM4-D-P1etuxxtSWjzWz-17" edge="1">
          <mxGeometry relative="1" as="geometry">
            <mxPoint x="455" y="610" as="sourcePoint" />
            <mxPoint x="465" y="670" as="targetPoint" />
          </mxGeometry>
        </mxCell>
        <mxCell id="lM4-D-P1etuxxtSWjzWz-22" value="No" style="edgeLabel;resizable=0;html=1;align=center;verticalAlign=middle;" parent="lM4-D-P1etuxxtSWjzWz-21" connectable="0" vertex="1">
          <mxGeometry relative="1" as="geometry" />
        </mxCell>
        <mxCell id="lM4-D-P1etuxxtSWjzWz-23" value="Contribution &amp;amp; Change Request Process" style="ellipse;whiteSpace=wrap;html=1;aspect=fixed;fontSize=10;" parent="1" vertex="1">
          <mxGeometry x="585" y="540" width="80" height="80" as="geometry" />
        </mxCell>
        <mxCell id="lM4-D-P1etuxxtSWjzWz-24" value="" style="endArrow=classic;html=1;rounded=0;exitX=1;exitY=0.5;exitDx=0;exitDy=0;entryX=0;entryY=0.5;entryDx=0;entryDy=0;" parent="1" source="lM4-D-P1etuxxtSWjzWz-12" target="lM4-D-P1etuxxtSWjzWz-23" edge="1">
          <mxGeometry relative="1" as="geometry">
            <mxPoint x="435" y="470" as="sourcePoint" />
            <mxPoint x="535" y="470" as="targetPoint" />
          </mxGeometry>
        </mxCell>
        <mxCell id="lM4-D-P1etuxxtSWjzWz-25" value="Yes" style="edgeLabel;resizable=0;html=1;align=center;verticalAlign=middle;" parent="lM4-D-P1etuxxtSWjzWz-24" connectable="0" vertex="1">
          <mxGeometry relative="1" as="geometry" />
        </mxCell>
        <mxCell id="lM4-D-P1etuxxtSWjzWz-27" value="" style="endArrow=none;dashed=1;html=1;rounded=0;fontSize=10;entryX=0;entryY=0.5;entryDx=0;entryDy=0;exitX=1;exitY=0.5;exitDx=0;exitDy=0;" parent="1" source="lM4-D-P1etuxxtSWjzWz-3" target="lM4-D-P1etuxxtSWjzWz-6" edge="1">
          <mxGeometry width="50" height="50" relative="1" as="geometry">
            <mxPoint x="240" y="430" as="sourcePoint" />
            <mxPoint x="290" y="380" as="targetPoint" />
          </mxGeometry>
        </mxCell>
        <mxCell id="lM4-D-P1etuxxtSWjzWz-28" value="" style="endArrow=none;dashed=1;html=1;rounded=0;fontSize=10;entryX=0;entryY=0.5;entryDx=0;entryDy=0;exitX=1;exitY=0.5;exitDx=0;exitDy=0;" parent="1" source="lM4-D-P1etuxxtSWjzWz-2" target="lM4-D-P1etuxxtSWjzWz-6" edge="1">
          <mxGeometry width="50" height="50" relative="1" as="geometry">
            <mxPoint x="340" y="360" as="sourcePoint" />
            <mxPoint x="410" y="283" as="targetPoint" />
          </mxGeometry>
        </mxCell>
      </root>
    </mxGraphModel>
  </diagram>
</mxfile>
